<?xml version="1.0" encoding="UTF-8" standalone="no"?>
<!-- Created with Inkscape (http://www.inkscape.org/) -->

<svg
   version="1.1"
   id="svg1"
   width="793.70081"
   height="1122.5197"
   viewBox="0 0 793.70081 1122.5197"
   sodipodi:docname="logo_b&amp;w copia.svg"
   inkscape:version="1.4 (e7c3feb1, 2024-10-09)"
   xmlns:inkscape="http://www.inkscape.org/namespaces/inkscape"
   xmlns:sodipodi="http://sodipodi.sourceforge.net/DTD/sodipodi-0.dtd"
   xmlns="http://www.w3.org/2000/svg"
   xmlns:svg="http://www.w3.org/2000/svg">
  <defs
     id="defs1">
    <clipPath
       clipPathUnits="userSpaceOnUse"
       id="clipPath1">
      <path
         d="M 0,0 H 595.2756 V 841.8898 H 0 Z"
         transform="matrix(0,0.00167989,0.00167989,0,-0.20714287,0)"
         id="path1" />
    </clipPath>
  </defs>
  <sodipodi:namedview
     id="namedview1"
     pagecolor="#ffffff"
     bordercolor="#000000"
     borderopacity="0.25"
     inkscape:showpageshadow="2"
     inkscape:pageopacity="0.0"
     inkscape:pagecheckerboard="0"
     inkscape:deskcolor="#d1d1d1"
     showgrid="false"
     inkscape:zoom="0.60667092"
     inkscape:cx="397.24996"
     inkscape:cy="561.2598"
     inkscape:window-width="1440"
     inkscape:window-height="900"
     inkscape:window-x="0"
     inkscape:window-y="0"
     inkscape:window-maximized="0"
     inkscape:current-layer="g1">
    <inkscape:page
       x="0"
       y="0"
       inkscape:label="1"
       id="page1"
       width="793.70081"
       height="1122.5197"
       margin="0"
       bleed="0" />
  </sodipodi:namedview>
  <g
     id="g1"
     inkscape:groupmode="layer"
     inkscape:label="1">
    <path
       style="fill:#000000"
       d="m 121.96881,812.96967 c -0.26913,-0.26913 -0.50758,-17.85292 -0.52989,-39.07511 l -0.0406,-38.58578 5.81594,-0.545 c 3.19877,-0.29975 10.44217,-0.38549 16.09645,-0.19054 8.29603,0.28604 11.16939,0.69892 14.88529,2.13888 6.09166,2.36061 11.28376,7.53675 13.49899,13.45747 3.22732,8.62578 1.73867,20.47158 -3.4231,27.239 -4.30784,5.64788 -14.02623,9.54827 -24.33943,9.76843 l -6.23075,0.13301 v 13.07448 13.07448 h -7.6218 c -4.19199,0 -7.842,-0.22019 -8.11113,-0.48932 z m 29.35297,-41.35364 c 4.37053,-1.87401 6.08307,-5.57535 5.56512,-12.02794 -0.68017,-8.4734 -4.05835,-11.23736 -13.73458,-11.23736 h -5.45058 v 11.65919 c 0,8.25138 0.28318,11.96567 0.96887,12.70776 1.26328,1.36719 8.32816,0.75199 12.65117,-1.10165 z m 30.56057,2.33343 v -39.55051 h 22.47785 22.47786 v 6.97589 6.97589 h -14.2924 -14.29239 l -0.2407,8.91515 -0.2407,8.91516 12.9829,-0.002 12.98289,-0.002 v 7.36343 7.36344 h -12.78912 -12.78912 v 8.91363 8.91363 h 14.33932 14.33932 v 7.31954 7.31954 l -22.47786,0.0644 -22.47785,0.0644 z m 71.05069,38.9928 c -0.2842,-0.2842 -0.51673,-14.93356 -0.51673,-32.55413 v -32.0374 h -9.68873 -9.68873 v -6.97589 -6.97589 h 27.51599 27.51599 v 6.97589 6.97589 h -9.68873 -9.68873 v 32.55413 32.55413 h -7.6218 c -4.19199,0 -7.85433,-0.23253 -8.13853,-0.51673 z m 70.01722,-39.01329 v -39.53002 h 20.92766 20.92766 v 6.97589 6.97589 h -12.78912 -12.78913 v 9.30118 9.30118 h 13.17667 13.17668 v 6.97588 6.97589 H 352.404 339.22733 v 16.27707 16.27706 h -8.13853 -8.13854 z m 53.4818,0.0291 v -39.55914 h 22.8654 22.8654 v 6.97589 6.97589 h -14.72687 -14.72687 v 8.89489 8.89489 l 12.9829,0.21251 12.9829,0.21252 0.22286,7.16966 0.22286,7.16966 h -13.20576 -13.20576 v 8.89725 8.89724 l 15.3082,0.21016 15.30819,0.21016 v 6.97589 6.97589 l -23.44673,0.22289 -23.44672,0.22289 z m 57.35728,-0.0843 v -39.49862 l 22.28408,0.20566 22.28408,0.20566 0.22395,6.78211 0.22395,6.78212 h -14.75704 -14.75705 v 8.91363 8.91363 h 12.78912 12.78913 v 7.36343 7.36344 h -12.78913 -12.78912 v 8.91363 8.91363 h 15.11442 15.11442 v 7.38367 7.38366 l -22.86541,-0.0635 -22.8654,-0.0635 z m 59.10126,39.06776 -3.29417,-0.3468 v -38.605 -38.605 l 3.59612,-0.4929 c 5.81565,-0.79713 22.33941,-0.56516 26.78834,0.37607 5.99956,1.26927 12.89148,4.6486 17.073,8.37143 10.20986,9.08988 14.06705,29.45407 8.65377,45.68795 -3.96861,11.90143 -11.33613,18.82308 -23.75547,22.3178 -4.0867,1.14997 -22.60566,1.97611 -29.06159,1.29645 z m 28.2886,-16.89027 c 7.22812,-3.93404 10.27254,-10.60517 10.27254,-22.50987 0,-16.45025 -6.09108,-23.88202 -20.46471,-24.96909 l -5.88863,-0.44536 v 25.40217 25.40216 l 6.03671,-0.34946 c 4.71525,-0.27296 6.91393,-0.82691 10.04409,-2.53055 z m 38.17609,-22.09284 v -39.5595 h 22.47785 22.47786 v 6.97589 6.97589 h -14.33932 -14.33933 v 8.91363 8.91363 h 12.78913 12.78912 v 7.36343 7.36344 h -12.78912 -12.78913 v 8.8969 8.89689 l 14.78308,0.21051 14.78308,0.21051 0.0781,6.97589 0.0781,6.97589 -22.99971,0.22325 -22.99971,0.22325 z m 56.58218,0.41076 v -38.99233 l 2.90662,-0.48043 c 1.59864,-0.26424 8.0146,-0.48427 14.25768,-0.48897 9.22923,-0.007 12.30198,0.28519 16.4382,1.56273 6.84453,2.11406 11.17517,5.55942 14.04755,11.17591 2.01695,3.94382 2.32234,5.36863 2.31878,10.81808 -0.006,9.95933 -4.19155,17.18171 -11.79751,20.35969 l -2.6341,1.10059 2.73793,3.03056 c 1.50586,1.66681 3.44431,4.41519 4.30767,6.10751 1.59134,3.11927 10.12388,23.76689 10.12388,24.49844 0,0.2189 -3.62308,0.398 -8.0513,0.398 h -8.05129 l -4.82591,-11.4327 c -2.65425,-6.28798 -5.51136,-12.39715 -6.34913,-13.57592 -1.80882,-2.54505 -5.20742,-4.44512 -7.95086,-4.44512 h -1.97624 v 14.652 14.652 l -7.75098,0.0261 -7.75099,0.0261 z m 29.30661,-5.88579 c 4.51541,-2.75297 6.07692,-9.42868 3.4401,-14.70701 -1.87915,-3.76163 -5.55832,-5.42299 -12.01282,-5.42448 l -5.23192,-10e-4 v 10.85137 10.85138 l 5.61947,-0.003 c 4.26836,-0.002 6.23634,-0.379 8.18517,-1.56716 z M 478.3575,696.45494 c -3.83674,-0.34833 -10.6464,-1.37675 -15.13258,-2.28538 -7.84785,-1.5895 -9.06582,-1.62266 -32.16659,-0.87581 -76.06937,2.45935 -160.58291,-1.63449 -189.28021,-9.16872 -7.24376,-1.90179 -10.67702,-3.91732 -10.67702,-6.26806 0,-2.57202 2.90627,-4.37388 9.99976,-6.19975 5.6447,-1.45295 24.67674,-4.36826 31.77434,-4.86716 2.8778,-0.20228 3.06083,-0.37555 3.90847,-3.70016 1.46452,-5.74414 4.44953,-10.91535 8.96187,-15.52546 5.22963,-5.34296 11.16547,-8.26021 20.18936,-9.92235 l 6.72659,-1.23899 -3.80886,-4.96943 c -6.88492,-8.98277 -11.68604,-20.56215 -12.72326,-30.68602 -0.48534,-4.73714 -0.69474,-5.13545 -4.87433,-9.27142 l -4.3672,-4.32163 -8.90346,1.5166 c -10.03991,1.71019 -11.64877,2.7771 -13.18187,8.74146 -2.24741,8.74336 -3.20678,11.33839 -5.43588,14.70371 -2.99143,4.51625 -7.69221,8.04301 -12.70433,9.53145 -12.46257,3.70099 -23.90855,-2.25371 -28.35701,-14.75256 -1.65155,-4.64036 -1.92276,-6.71588 -1.8737,-14.33932 0.0483,-7.50415 0.35967,-9.71214 1.96922,-13.96346 4.07105,-10.75288 10.98782,-18.4802 25.31595,-28.2826 8.18441,-5.59925 9.0871,-6.44684 9.0871,-8.5325 0,-2.11697 -0.92729,-2.93146 -10.806,-9.49156 -14.35259,-9.53104 -20.67131,-14.44173 -31.39146,-24.39633 -4.92747,-4.5756 -9.42012,-8.32513 -9.98367,-8.33231 -0.56354,-0.007 -2.48191,0.83149 -4.26304,1.86372 -11.78701,6.83096 -26.204,5.12295 -35.53712,-4.21017 -3.51437,-3.51437 -4.67258,-5.32158 -5.72031,-8.92564 -2.78269,-9.57213 0.0718,-18.54184 8.56097,-26.90167 9.51414,-9.36912 19.33161,-13.72104 31.00824,-13.74545 12.24132,-0.0256 24.11182,3.80832 36.54587,11.80348 3.04806,1.95992 9.77265,6.02589 14.94353,9.03549 l 9.40159,5.472 4.35829,-6.77364 c 2.39706,-3.72551 6.71799,-9.96224 9.60205,-13.85941 l 5.24376,-7.08577 -2.06772,-1.92693 c -4.34681,-4.05084 -5.37402,-4.12182 -13.6942,-0.94624 -6.68531,2.5516 -11.52365,2.9899 -17.05216,1.54475 -15.26549,-3.99039 -23.17376,-19.88516 -16.62466,-33.41378 4.95701,-10.23982 20.49731,-18.58863 37.16477,-19.96624 2.34467,-0.1938 4.3985,-0.38363 4.56407,-0.42184 0.16556,-0.0382 -1.48528,-1.02868 -3.66854,-2.20101 -11.14132,-5.98251 -26.18218,-19.86854 -30.01425,-27.70977 -2.02778,-4.14929 -2.27277,-5.44433 -2.27277,-12.01403 0,-6.72329 0.22286,-7.83512 2.56355,-12.78912 1.40995,-2.98413 3.54607,-6.47208 4.74693,-7.75099 1.37657,-1.46605 2.36945,-3.56433 2.68694,-5.67837 0.71129,-4.73626 4.49766,-11.83207 7.91449,-14.83208 4.27948,-3.75744 7.65829,-4.94503 14.25467,-5.01029 5.40238,-0.0534 6.33449,0.19766 13.18818,3.55282 4.05621,1.98568 11.1221,6.08 15.70197,9.09849 l 8.32703,5.48816 6.67249,-3.82594 c 9.48527,-5.43876 14.7157,-7.08855 23.99815,-7.56952 9.42496,-0.48836 16.97148,0.8552 27.79973,4.94939 l 7.44024,2.81318 3.66187,-1.97526 c 2.01403,-1.0864 6.80102,-3.09944 10.63776,-4.47344 5.67226,-2.03132 8.52865,-2.5707 15.28493,-2.88631 7.43758,-0.34744 8.99316,-0.17485 14.83174,1.64553 8.70536,2.71419 14.60545,7.09808 20.16705,14.98455 4.19613,5.9502 24.14955,39.69876 27.97812,47.32128 2.22024,4.42039 2.56661,9.64224 0.90359,13.62241 -2.16892,5.19096 -9.65476,9.5444 -20.13369,11.70888 -10.76266,2.22309 -19.82439,1.10362 -30.65665,-3.78729 -3.35079,-1.51292 -6.31004,-2.75076 -6.57612,-2.75076 -0.26607,0 -0.48376,1.16498 -0.48376,2.58885 0,4.44038 -2.93383,14.31987 -6.46796,21.78049 -4.17097,8.80502 -9.43229,16.68537 -17.16391,25.70797 -5.89201,6.87582 -5.90527,6.90142 -5.50631,10.63082 0.48297,4.51472 6.22055,15.76638 12.65845,24.8238 2.72398,3.83233 11.89971,13.69596 23.52617,25.2899 22.47165,22.40879 27.6228,28.84342 36.71987,45.8692 l 3.33895,6.24907 1.99655,-8.41702 c 4.16856,-17.57372 5.13377,-22.82794 6.25654,-34.05823 1.03158,-10.31814 2.46301,-60.86823 2.33951,-82.61824 -0.0465,-8.19566 -0.0687,-8.29205 -2.41028,-10.47941 -2.84905,-2.66141 -3.66541,-4.93474 -3.0157,-8.39795 0.58577,-3.12244 4.00096,-6.21592 8.07281,-7.31235 1.60431,-0.432 12.83706,-2.90402 24.96168,-5.49338 18.16071,-3.87845 22.86414,-4.63189 26.69535,-4.2763 13.3539,1.2394 76.60947,6.73693 85.64838,7.44367 5.7551,0.44999 11.7461,1.15688 13.31332,1.57087 3.33743,0.8816 6.83924,4.67616 6.83924,7.41101 0,2.61341 -1.98733,6.25496 -4.00198,7.33317 -1.64121,0.87835 -1.65502,1.08041 -1.17965,17.26892 1.1293,38.45826 8.64832,117.58025 17.28264,181.86368 1.9182,14.28119 4.10739,30.56818 4.86486,36.19332 1.76546,13.11063 1.4072,14.24813 -5.07665,16.11887 -6.42969,1.8551 -18.30492,5.64705 -43.66826,13.94397 -12.14967,3.97443 -24.88066,7.77315 -28.29109,8.44161 -24.24075,4.75127 -63.20349,7.59897 -81.38534,5.94828 z m 52.96695,-12.83997 c 5.25879,-0.65122 13.08837,-1.86774 17.39906,-2.70336 7.7938,-1.51083 19.6528,-5.06871 20.20707,-6.06243 0.67571,-1.21143 -3.41829,-28.55129 -4.54948,-30.3816 -0.15678,-0.25367 -4.10059,0.49757 -8.76401,1.66943 -4.66343,1.17186 -14.36276,3.103 -21.55407,4.29143 -12.2476,2.02403 -14.52222,2.15976 -35.94051,2.1446 -24.94774,-0.0177 -32.98255,-0.83596 -44.58465,-4.54075 -7.63024,-2.43649 -7.65414,-2.43657 -9.23061,-0.0306 -1.54906,2.36417 -4.93469,15.67892 -5.59628,22.00861 l -0.47551,4.54944 5.7217,2.71382 c 7.88235,3.73862 18.92897,6.09917 36.72564,7.84791 6.6568,0.65411 41.58463,-0.38495 50.64165,-1.50653 z m -136.67758,-11.1523 c 10.44252,-2.18291 15.54213,-4.37545 19.76188,-8.49649 3.19755,-3.12275 3.74316,-4.12554 4.19891,-7.71723 0.69243,-5.45697 2.79212,-10.61498 7.77735,-19.10551 5.96738,-10.16327 9.32486,-17.1189 11.23353,-23.27229 5.85807,-18.88597 6.08909,-35.00165 0.7326,-51.10706 -5.3256,-16.01252 -11.35856,-24.33925 -35.13468,-48.49309 -9.86148,-10.01815 -19.69254,-20.48198 -21.84679,-23.25296 -10.2303,-13.15903 -16.98124,-25.2825 -21.47131,-38.55857 l -2.6861,-7.94219 2.44024,-2.02733 c 1.34213,-1.11503 4.99961,-4.86572 8.12773,-8.33488 14.03838,-15.56885 19.92677,-28.78474 19.38073,-43.49811 l -0.26507,-7.14255 -4.31865,-4.66306 c -7.45496,-8.04948 -8.95637,-13.87349 -4.53552,-17.59339 1.31162,-1.10366 2.67969,-2.00665 3.04014,-2.00665 0.78886,0 4.81676,3.21695 12.94299,10.33713 15.75921,13.80818 28.1895,18.76273 42.11733,16.78741 9.0033,-1.2769 13.15143,-3.67766 13.14655,-7.60867 -0.002,-1.97298 -22.70337,-41.34708 -28.00972,-48.58206 -5.84393,-7.96795 -12.55309,-10.85984 -23.83421,-10.27343 -8.75675,0.45519 -15.13104,2.59253 -23.15468,7.76391 -2.87182,1.85095 -5.60454,3.59664 -6.0727,3.87933 -0.46816,0.28268 -4.47929,-1.36176 -8.91363,-3.65432 -9.82893,-5.08158 -15.978,-6.77379 -25.1146,-6.91152 -9.0698,-0.13672 -13.62585,1.36772 -25.1393,8.30117 l -8.94045,5.38398 -2.72513,-1.55544 c -1.49883,-0.85549 -5.65836,-3.34792 -9.24342,-5.53873 -3.58505,-2.19081 -6.90648,-3.98329 -7.38095,-3.98329 -0.47446,0 -1.51007,1.20216 -2.30134,2.67146 -2.08866,3.87841 -4.45303,5.85756 -11.161,9.34257 -5.22522,2.71467 -6.19797,3.56488 -7.81883,6.83391 -2.51167,5.06565 -3.0602,12.90445 -1.27839,18.26898 3.49361,10.51828 14.88972,19.01699 37.93359,28.28918 8.15589,3.2817 9.3993,4.27091 11.80416,9.3909 3.56915,7.59879 2.1082,12.16173 -6.08614,19.00876 -5.61365,4.69065 -8.63899,6.31622 -15.13331,8.1314 -8.37712,2.34142 -11.0639,6.79533 -6.44416,10.68258 2.92069,2.45759 7.71919,3.5829 20.0041,4.69121 9.04359,0.81588 9.9019,1.02702 10.11076,2.48719 0.12554,0.87759 -0.47537,2.49012 -1.33534,3.58339 -2.64792,3.3663 -6.66329,4.73407 -14.70885,5.01037 -4.01733,0.13796 -7.94742,0.45498 -8.73354,0.70449 -2.55341,0.81042 -16.34306,20.14639 -21.06414,29.53631 -6.84414,13.61256 -7.47561,30.25697 -1.81083,47.72962 l 2.46875,7.6147 6.97589,-4.00529 c 9.77024,-5.6097 14.65191,-9.56255 23.31619,-18.87989 7.44337,-8.0044 9.97402,-9.7188 14.346,-9.7188 2.37005,0 2.58949,0.21174 3.29738,3.18163 0.67889,2.8482 -2.35722,7.10014 -12.23091,17.12892 -9.41209,9.55992 -12.79529,12.0023 -28.73149,20.74168 -21.42907,11.75167 -32.37154,19.62505 -38.11138,27.42207 -6.59591,8.95991 -8.45978,21.88688 -4.32243,29.9784 2.77658,5.43022 5.32797,7.2588 10.1281,7.2588 8.26629,0 12.64583,-5.91338 14.31594,-19.32973 1.15522,-9.28022 -0.08,-8.40446 18.1013,-12.83341 33.23729,-8.09658 40.3562,-10.63987 51.66538,-18.45791 5.17482,-3.57734 6.08229,-3.93396 10.01083,-3.93396 4.35312,0 5.2611,0.61252 5.2611,3.54911 0,2.06717 -5.81459,7.58028 -12.72242,12.06277 -5.82518,3.77995 -11.92879,6.7756 -23.70719,11.63547 -1.92086,0.79257 -1.88848,0.8465 3.71832,6.1931 12.69766,12.10838 28.4405,19.18526 36.08934,16.22325 2.05155,-0.79446 2.17507,-1.07193 1.67017,-3.75182 -0.29987,-1.59165 -0.52034,-6.20746 -0.48993,-10.25735 0.0683,-9.09715 2.07128,-17.1888 6.61931,-26.74089 5.87255,-12.33393 12.61698,-19.8889 21.40825,-23.98106 4.62125,-2.1511 8.27731,-2.45206 13.57683,-1.11763 5.67229,1.4283 4.60556,3.2867 -4.85612,8.46008 -11.20948,6.12902 -19.33766,16.46538 -23.44577,29.81528 -3.0091,9.7785 -1.98307,23.72297 2.38281,32.384 4.76022,9.44333 16.83959,22.22568 26.07588,27.59342 5.72261,3.32574 7.45021,5.12394 8.31757,8.65745 0.38203,1.55637 0.10491,2.17473 -1.30393,2.90955 -3.66572,1.91194 -10.0542,2.54379 -16.37506,1.61955 -11.99134,-1.75336 -20.90036,0.0205 -26.99972,5.37577 -2.73948,2.4053 -6.42839,9.4177 -7.33263,13.93887 -0.46529,2.32644 -0.40789,2.37924 2.90663,2.67426 1.85971,0.16552 12.27555,0.35731 23.1463,0.42619 16.69793,0.1058 20.84751,-0.10106 26.7409,-1.33301 z M 337.28193,366.20191 c -1.80977,-5.97727 -5.22582,-9.96774 -9.04413,-10.56495 -2.46154,-0.38501 -9.21555,1.18331 -14.45004,3.35537 -1.24154,0.51518 2.34651,-6.78372 5.13072,-10.43703 2.20498,-2.89327 7.10345,-5.95626 10.7336,-6.71166 2.91373,-0.60633 6.91105,0.9167 9.34448,3.56036 5.52252,5.99961 5.98118,20.24791 0.79047,24.55582 -0.90251,0.74901 -1.33857,0.0949 -2.5051,-3.75791 z m -11.58706,297.96806 6.23255,-0.41714 1.38141,-3.88945 c 1.28303,-3.61245 1.29063,-3.98974 0.10675,-5.29793 -0.70107,-0.77467 -3.08097,-2.22074 -5.28867,-3.21349 -3.48014,-1.56493 -5.25105,-1.80589 -13.31518,-1.8117 -10.56222,-0.008 -13.62714,0.76871 -19.29396,4.88699 -3.33985,2.4272 -8.22203,8.59293 -8.22203,10.38365 0,0.6261 25.93636,0.19319 38.39913,-0.64093 z m 259.07132,-8.13299 c -0.34033,-3.87911 -2.51574,-22.10361 -4.83425,-40.4989 -7.26577,-57.64734 -9.35725,-87.41695 -11.75688,-167.34422 -0.30744,-10.24041 -0.83792,-17.63349 -1.26526,-17.63349 -0.6893,0 -12.94377,-1.271 -67.23709,-6.97365 -12.14967,-1.27613 -23.17258,-2.50246 -24.49535,-2.72517 l -2.40505,-0.40493 -0.49655,9.50869 c -0.2731,5.22978 -0.84997,22.58847 -1.28192,38.57488 -1.05729,39.12964 -2.28796,50.6631 -8.05947,75.53116 -1.0831,4.66683 -1.77151,8.67796 -1.52979,8.91363 0.7105,0.69273 13.15324,-12.74945 17.40765,-18.8059 8.61715,-12.26709 14.21214,-24.97081 17.42675,-39.5683 1.19626,-5.43222 2.38327,-8.98995 3.20289,-9.59975 0.71622,-0.53288 3.22401,-0.96887 5.57287,-0.96887 4.18333,0 4.35862,0.0911 8.57431,4.45681 10.97681,11.36743 15.44027,30.18009 12.0559,50.81345 -0.75295,4.59045 -1.14262,8.57265 -0.86593,8.84934 0.27668,0.27668 5.29198,0.79983 11.1451,1.16254 5.85312,0.36272 11.3853,0.817 12.29371,1.00951 2.45543,0.52035 3.88468,4.38461 5.29591,14.31859 0.69646,4.90249 2.10516,13.44795 3.13045,18.98991 1.02529,5.54195 2.92714,16.52897 4.22632,24.4156 3.0126,18.28783 3.52842,20.15256 5.57461,20.15256 0.8752,0 2.72135,1.13358 4.10256,2.51907 2.34761,2.35489 2.67324,3.37786 4.99625,15.69574 1.36673,7.24717 2.64998,13.96146 2.85166,14.92065 0.31102,1.47919 0.86943,1.74397 3.67803,1.74397 h 3.31135 z m -50.98915,-16.85274 c 7.46032,-1.30226 15.39539,-2.92243 17.63349,-3.60039 3.90996,-1.1844 4.06927,-1.34001 4.06927,-3.97509 0,-1.99765 -0.61531,-3.35775 -2.26568,-5.00811 -2.50722,-2.50723 -3.52445,-2.68317 -7.91233,-1.36852 -2.59582,0.77772 -3.20106,0.71015 -4.54674,-0.50768 -0.9591,-0.86798 -1.55232,-2.38803 -1.55232,-3.97764 0,-2.07196 0.45048,-2.80577 2.31406,-3.76946 3.21368,-1.66186 3.66805,-4.23041 1.44732,-8.18166 -1.75771,-3.12743 -1.9088,-3.2114 -5.12572,-2.84881 -1.82304,0.20548 -4.69594,1.28772 -6.38421,2.40497 -3.66154,2.42309 -6.23966,2.58208 -8.12307,0.50094 -1.19344,-1.31874 -1.25212,-1.85122 -0.42429,-3.8498 0.5284,-1.27565 1.44639,-2.72244 2.03998,-3.21508 1.78197,-1.4789 1.23256,-3.80799 -1.55608,-6.59664 -2.29585,-2.29584 -3.13569,-2.63533 -6.51944,-2.63533 -3.38565,0 -4.14161,0.30603 -5.89074,2.38476 -2.50129,2.97261 -2.63464,6.93034 -0.37554,11.14533 1.7738,3.30952 2.25032,7.70167 0.97406,8.97793 -1.41031,1.41031 -4.76633,-0.54529 -6.38681,-3.72169 -4.23726,-8.30572 -14.82072,-5.20176 -14.82072,4.3467 0,1.72085 -0.32032,3.3268 -0.71182,3.56875 -0.3915,0.24196 -2.72343,-0.084 -5.18207,-0.72442 -4.10904,-1.07027 -4.69349,-1.05515 -7.23294,0.18714 -2.21999,1.08601 -2.89173,1.96054 -3.41956,4.45189 -1.10999,5.23912 -1.32424,5.40702 -7.17503,5.62282 -8.56783,0.31601 -9.99101,1.07313 -11.49022,6.11276 -0.6687,2.24786 1.66996,2.99635 15.38459,4.92386 15.63618,2.19756 15.51151,2.1903 33.39127,1.94422 14.01875,-0.19294 18.159,-0.55252 29.84129,-2.59175 z m -28.56835,-7.15846 c -0.87083,-0.93473 -1.80287,-2.69908 -2.0712,-3.92078 -0.81386,-3.70546 -5.75393,-3.98544 -7.48225,-0.42406 -0.34822,0.71755 -0.9321,1.91502 -1.29752,2.66105 -0.92276,1.88388 -2.92991,2.1065 -5.25526,0.58287 -2.37382,-1.55539 -2.04529,-4.01686 1.02776,-7.70046 2.72268,-3.26361 4.7118,-4.25548 8.59851,-4.28765 7.32176,-0.0606 12.86512,4.82918 12.4241,10.95925 -0.21436,2.97966 -0.47033,3.37912 -2.301,3.59095 -1.34548,0.15568 -2.60891,-0.35105 -3.64314,-1.46117 z m 23.29768,-0.0948 c -1.18543,-1.18543 -1.1803,-3.30609 0.016,-6.6144 1.08245,-2.99345 0.21486,-4.04908 -3.34506,-4.07009 -2.35983,-0.0139 -4.23684,1.82229 -5.00384,4.8951 -0.73877,2.95966 -2.57338,3.52435 -4.34442,1.33721 -3.40152,-4.20071 -0.54976,-10.39755 5.92239,-12.86929 5.60082,-2.13898 10.35272,-0.16807 12.84862,5.32911 1.79031,3.94312 1.92063,8.87986 0.29568,11.19982 -1.32929,1.89782 -4.84766,2.33425 -6.38937,0.79254 z m -75.60348,-12.22945 c 4.43625,-2.54435 6.70165,-5.27281 8.41876,-10.13962 0.63048,-1.78698 1.14633,-3.34895 1.14633,-3.47103 0,-0.12208 -1.48237,-0.4525 -3.29417,-0.73427 -1.81179,-0.28176 -3.90455,-0.68472 -4.65059,-0.89546 -0.93189,-0.26324 -1.3612,0.0577 -1.37171,1.0255 -0.0129,1.18322 -3.07084,10.4239 -5.01906,15.16665 -0.77339,1.88273 0.14924,1.69865 4.77044,-0.95177 z m 29.71179,-28.30365 c 6.40633,-1.69447 13.78732,-5.73785 18.54192,-10.15745 l 4.25168,-3.95211 -4.50719,0.37377 c -4.6296,0.38393 -12.47957,-0.92398 -13.27553,-2.21188 -0.24591,-0.39789 1.22841,-1.68218 3.27628,-2.85399 5.74923,-3.28974 13.44558,-11.43684 16.65699,-17.63251 4.63788,-8.94772 6.1895,-15.03478 6.61883,-25.9658 0.44275,-11.2728 -0.66238,-17.35758 -4.53999,-24.99694 l -2.45891,-4.84435 -1.35297,6.20079 c -2.39031,10.95503 -7.46482,22.47365 -15.04176,34.14327 -7.5989,11.70345 -18.44055,21.61308 -31.2805,28.59143 -4.18331,2.27358 -5.49412,3.36101 -5.13873,4.26304 0.26239,0.666 0.67579,5.14666 0.91866,9.95702 0.24287,4.81035 0.77326,8.95108 1.17864,9.20162 3.13332,1.9365 18.65303,1.86771 26.15258,-0.11591 z M 248.32777,507.48893 c 0.096,-8.84581 0.27038,-17.65287 0.38755,-19.57124 l 0.21304,-3.48794 -12.40157,-8.30292 c -14.90034,-9.97586 -22.75386,-14.06923 -30.93415,-16.12335 -7.77224,-1.95165 -12.92791,-1.94659 -19.29159,0.019 -7.99366,2.46899 -17.77138,10.44987 -20.33645,16.59924 -1.55099,3.71827 -0.98968,8.73539 1.30346,11.65064 3.28816,4.18022 12.05645,6.78936 18.6558,5.55132 1.45411,-0.27279 5.23796,-2.05621 8.40857,-3.96314 3.23701,-1.94688 6.74649,-3.47282 8.00372,-3.48008 1.8398,-0.0106 4.2644,1.95638 13.59884,11.03224 7.10389,6.90709 15.26714,13.87221 21.78906,18.59105 5.73607,4.15024 10.42922,7.55098 10.42922,7.55721 0,0.006 0.0785,-7.22617 0.1745,-16.07198 z m 7.14722,-74.58195 c 2.91299,-1.48609 4.905,-3.56784 11.88739,-12.42285 4.12438,-5.23051 7.20416,-7.37919 11.5586,-8.06411 6.25564,-0.98396 9.16831,-2.07574 11.87288,-4.45038 1.48646,-1.30513 2.70266,-2.68563 2.70266,-3.06778 0,-1.21768 -8.69216,-0.73704 -15.29399,0.84571 -9.03028,2.16494 -18.27767,5.89451 -22.38053,9.0263 -5.72496,4.36996 -8.37905,2.00975 -4.01799,-3.5731 0.82486,-1.05595 3.10544,-3.06152 5.06795,-4.45681 3.98797,-2.83535 3.51106,-3.02171 -3.50163,-1.36833 -9.81099,2.31314 -18.17558,8.37873 -19.21814,13.93605 -1.03331,5.50805 2.96926,11.86055 8.9861,14.26185 3.25044,1.29724 9.10767,0.98078 12.3367,-0.66655 z m 324.84663,-20.09903 9.65006,-3.01175 -3.48795,-0.48955 c -4.87524,-0.68427 -59.182,-5.65938 -68.59621,-6.28418 -8.29765,-0.5507 -23.70861,1.30995 -34.87943,4.21118 -5.19096,1.34817 -5.30832,1.42869 -2.71284,1.86134 1.49206,0.24871 10.56071,1.19032 20.15256,2.09247 9.59184,0.90215 23.02042,2.35195 29.84129,3.22179 14.82451,1.89051 31.97826,2.82281 36.85585,2.00311 1.93964,-0.32596 7.86914,-1.94795 13.17667,-3.60441 z M 248.91029,351.30626 c -0.01,-6.50096 -0.29212,-12.25591 -0.62707,-12.78879 -1.96611,-3.12796 -4.7608,1.10659 -5.63408,8.53684 -0.53755,4.57368 1.02117,9.32461 4.50929,13.74418 0.97346,1.23342 1.76993,2.26173 1.76993,2.28513 0,0.0234 -0.008,-5.27641 -0.0181,-11.77736 z m -96.29653,21.68432 c -4.24582,-1.61881 -7.49796,-4.79254 -10.21127,-9.96508 -1.42431,-2.71524 -3.42685,-6.06469 -4.4501,-7.44322 -5.7454,-7.74028 -7.06868,-15.43662 -3.8336,-22.29673 3.27443,-6.94358 7.93512,-9.68873 16.44946,-9.68873 8.33683,0 13.00455,-4.17939 15.09368,-13.5146 0.55603,-2.48462 1.73801,-5.60498 2.62662,-6.93414 4.95004,-7.40419 24.3379,-6.29139 29.63115,1.70072 0.93515,1.41195 2.12716,4.5511 2.6489,6.97589 1.26917,5.89844 3.02887,9.22338 6.82632,12.89831 2.80042,2.71007 3.1641,3.47096 3.14905,6.58834 -0.0318,6.57716 -4.13851,12.55648 -10.44681,15.2103 -1.76377,0.742 -6.10778,1.46479 -10.07628,1.67658 -3.83673,0.20475 -7.70545,0.82896 -8.59715,1.38713 -0.97265,0.60884 -2.48253,3.4409 -3.77407,7.07898 -2.74266,7.72562 -5.76463,12.09744 -10.13105,14.65634 -4.05236,2.37483 -11.01112,3.15448 -14.90485,1.66991 z m 11.69976,-11.40184 c 1.07054,-1.27227 2.67226,-4.25315 3.55937,-6.62418 4.56546,-12.20228 8.79397,-15.84446 18.44138,-15.88426 6.05985,-0.025 10.07285,-1.05283 12.30761,-3.15228 2.61544,-2.45708 2.34626,-3.81154 -1.48269,-7.46077 -3.4319,-3.27081 -4.62797,-6.0162 -5.61431,-12.88676 -0.80559,-5.61144 -2.83231,-7.50709 -8.58374,-8.02861 -5.72071,-0.51874 -7.55401,0.80311 -8.43313,6.08046 -0.75518,4.53329 -2.92206,8.61909 -6.82627,12.87138 -4.13085,4.49914 -8.18322,6.35546 -13.9216,6.37726 -6.08674,0.0231 -9.63093,1.61048 -11.02031,4.93572 -1.34684,3.22345 -0.69295,6.00447 2.52409,10.735 1.24785,1.83492 3.57437,5.6898 5.17005,8.56641 3.3275,5.99866 4.26672,6.72781 8.70785,6.76026 2.6438,0.0193 3.57618,-0.39346 5.1717,-2.28963 z"
       id="path2" />
  </g>
</svg>
